<!DOCTYPE svg PUBLIC "-//W3C//DTD SVG 1.1//EN" "http://www.w3.org/Graphics/SVG/1.1/DTD/svg11.dtd">
<!-- Uploaded to: SVG Repo, www.svgrepo.com, Transformed by: SVG Repo Mixer Tools -->
<svg width="800px" height="800px" viewBox="0 0 24 24" fill="none" xmlns="http://www.w3.org/2000/svg" transform="rotate(45)matrix(1, 0, 0, 1, 0, 0)">
<g id="SVGRepo_bgCarrier" stroke-width="0"/>
<g id="SVGRepo_tracerCarrier" stroke-linecap="round" stroke-linejoin="round"/>
<g id="SVGRepo_iconCarrier">
<path d="M15.2073 4.50372C18.5358 2.97323 20.2 2.20799 20.996 3.00399C21.792 3.79998 21.0268 5.46421 19.4963 8.79267L18.6427 10.649C18.3371 11.3137 18.1843 11.646 18.1843 11.9999C18.1843 12.3539 18.3371 12.6862 18.6427 13.3509L19.4963 15.2072C21.0268 18.5357 21.792 20.1999 20.996 20.9959C20.2 21.7919 18.5358 21.0266 15.2073 19.4962L13.351 18.6426C12.6863 18.337 12.354 18.1841 12.0001 18.1841C11.6461 18.1841 11.3138 18.337 10.6491 18.6426L8.7928 19.4962C5.46434 21.0266 3.80011 21.7919 3.00411 20.9959C2.20811 20.1999 2.97335 18.5357 4.50384 15.2072L5.35741 13.3509C5.66304 12.6862 5.81586 12.3539 5.81586 11.9999C5.81586 11.646 5.66304 11.3137 5.35741 10.649L4.50384 8.79267C2.97335 5.46421 2.20811 3.79998 3.00411 3.00399C3.80011 2.20799 5.46434 2.97323 8.7928 4.50372L10.6491 5.35729C11.3138 5.66292 11.6461 5.81574 12.0001 5.81574C12.354 5.81574 12.6863 5.66292 13.351 5.35729L15.2073 4.50372Z" fill="#5a10db"/>
</g>
</svg>