<!DOCTYPE svg PUBLIC "-//W3C//DTD SVG 1.1//EN" "http://www.w3.org/Graphics/SVG/1.1/DTD/svg11.dtd">
<!-- Uploaded to: SVG Repo, www.svgrepo.com, Transformed by: SVG Repo Mixer Tools -->
<svg fill="#5a10db" width="800px" height="800px" viewBox="0 0 24 24" xmlns="http://www.w3.org/2000/svg">
<g id="SVGRepo_bgCarrier" stroke-width="0"/>
<g id="SVGRepo_tracerCarrier" stroke-linecap="round" stroke-linejoin="round"/>
<g id="SVGRepo_iconCarrier">
<path d="M5,22H19a3,3,0,0,0,3-3V9a3,3,0,0,0-3-3H17V4a2,2,0,0,0-2-2H9A2,2,0,0,0,7,4V6H5A3,3,0,0,0,2,9V19A3,3,0,0,0,5,22ZM9,4h6V6H9ZM4,9A1,1,0,0,1,5,8H19a1,1,0,0,1,1,1v1.35l-8,3.556L4,10.35Zm0,3.539,7.594,3.375a1,1,0,0,0,.812,0L20,12.539V19a1,1,0,0,1-1,1H5a1,1,0,0,1-1-1Z"/>
</g>
</svg>